<?xml version="1.0" standalone="no"?>
<!DOCTYPE svg PUBLIC "-//W3C//DTD SVG 20010904//EN" "http://www.w3.org/TR/2001/REC-SVG-20010904/DTD/svg10.dtd">
<svg version="1.0" xmlns="http://www.w3.org/2000/svg" width="98.000000pt" height="85.000000pt" viewBox="0 0 98.000000 85.000000" preserveAspectRatio="xMidYMid meet">
    <metadata>
Created by potrace 1.16, written by Peter Selinger 2001-2019
</metadata>
    <g transform="translate(0.000000,85.000000) scale(0.100000,-0.100000)" fill="current" stroke="none">
        <path d="M426 767 c-125 -72 -86 -258 58 -274 159 -18 228 195 90 274 -21 13
-55 23 -74 23 -19 0 -53 -10 -74 -23z" />
        <path d="M154 625 c-94 -48 -55 -185 52 -185 16 0 39 13 60 34 43 43 45 83 7
126 -34 37 -77 46 -119 25z" />
        <path d="M754 625 c-94 -48 -55 -185 52 -185 16 0 39 13 60 34 43 43 45 83 7
126 -34 37 -77 46 -119 25z" />
        <path d="M411 364 c-34 -17 -62 -41 -79 -67 -24 -36 -27 -51 -31 -149 l-3
-108 202 0 202 0 -3 108 c-4 98 -7 113 -31 149 -31 48 -113 93 -168 93 -20 0
-60 -12 -89 -26z" />
        <path d="M126 317 c-59 -34 -76 -74 -76 -184 l0 -93 75 0 75 0 0 93 c0 54 6
114 15 143 8 27 15 52 15 57 0 15 -67 6 -104 -16z" />
        <path d="M770 333 c0 -5 7 -30 15 -57 9 -29 15 -89 15 -143 l0 -93 75 0 75 0
0 90 c0 112 -20 159 -80 190 -38 20 -100 27 -100 13z" />
    </g>
</svg>